<svg width="150" height="150" viewBox="0 0 150 150" fill="none" xmlns="http://www.w3.org/2000/svg">
<rect width="150" height="150" fill="#9B646A"/>
<path fill-rule="evenodd" clip-rule="evenodd" d="M73.8343 33.0009C73.8494 33.0255 77.5881 39.4852 82.1457 47.3537C86.7019 55.2237 90.4585 61.7532 90.4914 61.8668C90.534 62.0092 90.1383 62.3118 87.8437 63.6371L87.4315 62.9115C87.2048 62.5117 84.0514 57.0624 80.424 50.8027C75.4721 42.2577 73.7917 39.4633 73.6776 39.5879C73.5938 39.6796 70.4789 45.0234 66.754 51.4612C63.0276 57.9004 59.7506 63.5071 59.4689 63.9205C59.1886 64.3354 58.7407 65.1049 58.4741 65.632C58.2076 66.1591 57.805 67.1148 57.5783 67.7542C57.3516 68.3936 57.052 69.4424 56.9133 70.0817C56.7237 70.9471 56.6591 71.8247 56.6577 73.5046C56.6563 75.1709 56.7209 76.0691 56.905 76.9275C57.0424 77.5669 57.3035 78.5377 57.4876 79.084C57.6717 79.6302 58.0496 80.5544 58.3285 81.1377C58.6061 81.7209 59.2065 82.7533 59.6627 83.431C60.1175 84.1088 61.082 85.2493 61.8048 85.964C62.7844 86.9333 63.3808 87.3988 65.1725 88.3121L65.2315 69.0549L65.9584 68.562C66.3569 68.2909 67.0233 67.8966 67.4396 67.6871C67.8545 67.4762 68.6281 67.1572 69.1571 66.9765C69.6861 66.7971 70.6438 66.5589 71.2868 66.448C71.9285 66.3357 72.9494 66.2454 73.554 66.2454C74.1585 66.2454 75.178 66.3357 75.8211 66.448C76.4627 66.5589 77.4218 66.7971 77.9508 66.9765C78.4798 67.1572 79.2534 67.4749 79.6683 67.6844C80.0833 67.8938 80.7648 68.2977 81.1797 68.5825C81.5947 68.8659 82.2996 69.4273 82.7461 69.8298C83.1913 70.2324 83.925 71.0538 84.3757 71.6563C84.8264 72.2587 85.4447 73.276 85.7483 73.9154C86.052 74.5561 86.4546 75.6652 86.6442 76.3799C86.9341 77.4793 86.9863 77.9873 86.9863 79.6658C86.9863 81.3458 86.9341 81.851 86.6428 82.9518C86.4546 83.6665 86.0877 84.7153 85.828 85.2794C85.5683 85.8448 85.1122 86.6759 84.814 87.1277C84.5158 87.5796 83.8385 88.4038 83.3095 88.9597C82.7805 89.5156 81.9767 90.2316 81.5232 90.552C81.0698 90.8724 80.3278 91.3201 79.8744 91.546C79.421 91.7719 78.6474 92.0814 78.1569 92.2333C77.665 92.3839 76.8612 92.5811 76.3707 92.6715C75.8788 92.7605 74.6422 92.8317 73.6227 92.8303C72.5976 92.8289 71.0917 92.7262 70.2563 92.6003C69.425 92.4743 68.668 92.347 68.5732 92.3168C68.4385 92.2744 68.4014 93.241 68.4014 101.435L70.6342 100.278C71.8625 99.6418 73.5169 98.8368 74.3097 98.4904C75.1025 98.1426 76.8337 97.4608 78.1569 96.9734C79.4787 96.4859 81.3652 95.6877 82.3477 95.1989C83.3301 94.7101 84.6903 93.9133 85.3705 93.4286C86.0506 92.9439 87.1581 92.0362 87.83 91.4118C88.5032 90.7875 89.4499 89.7538 89.9336 89.113C90.4186 88.4736 91.1482 87.2715 91.5563 86.4432C91.9644 85.6148 92.4577 84.3826 92.6514 83.7049C92.8465 83.0271 93.0801 81.7798 93.3398 79.3906H96.5L96.3928 80.7256C96.3324 81.4608 96.1579 82.678 96.004 83.431C95.8501 84.1841 95.5066 85.3862 95.24 86.1009C94.9735 86.8156 94.4884 87.8945 94.1614 88.4969C93.8344 89.0993 93.2601 90.0235 92.8863 90.5506C92.5112 91.0778 91.8421 91.9171 91.3983 92.4168C90.9545 92.9165 90.0971 93.7668 89.4925 94.3062C88.888 94.847 87.8671 95.6466 87.2254 96.0834C86.5837 96.5215 85.5628 97.1568 84.9583 97.495C84.3537 97.8345 83.3328 98.3425 82.6912 98.6232C82.0481 98.9039 80.7497 99.4132 79.8057 99.7541C78.8604 100.095 77.2226 100.741 76.1646 101.189C75.1066 101.637 73.3753 102.45 72.3173 102.996C71.2594 103.543 69.7548 104.386 68.9744 104.869C68.1939 105.353 66.8969 106.241 66.0917 106.844C65.2865 107.446 64.1626 108.367 63.5951 108.89C63.0263 109.415 62.1098 110.339 61.5574 110.944C61.0051 111.551 60.193 112.571 59.7547 113.21C59.315 113.851 58.7544 114.775 58.5071 115.264C58.2598 115.754 57.9891 116.344 57.7528 117L56.2125 116.645C54.7025 116.298 54.675 116.284 54.7574 115.948C54.8042 115.761 55.0281 115.175 55.2535 114.648C55.4788 114.121 55.957 113.196 56.3142 112.594C56.6728 111.992 57.4175 110.913 57.9699 110.198C58.5222 109.483 59.6297 108.251 60.4321 107.46C61.2332 106.668 62.6443 105.436 65.248 103.421L65.2467 91.646L64.4539 91.3899C64.0183 91.2489 63.2585 90.9326 62.7679 90.6862C62.276 90.4411 61.5038 89.9633 61.0504 89.6251C60.597 89.2869 59.7314 88.4887 59.1268 87.852C58.5222 87.2154 57.6758 86.2063 57.2444 85.6107C56.8143 85.0138 56.1163 83.8486 55.6931 83.0203C55.2699 82.1919 54.7148 80.868 54.4593 80.0766C54.2051 79.2852 53.8822 78.0845 53.7448 77.4067C53.5511 76.4511 53.4961 75.5597 53.5002 73.4362C53.5057 71.1606 53.5565 70.4665 53.8025 69.3287C53.966 68.5757 54.2944 67.405 54.5321 66.7273C54.7698 66.0496 55.1999 65.0022 55.4884 64.3997C55.7756 63.7973 56.3348 62.8115 56.7305 62.2091C57.1262 61.6067 60.7866 55.3537 64.8647 48.3122C68.9441 41.272 72.6251 34.9355 73.0456 34.2331C73.4646 33.5294 73.8205 32.9749 73.8343 33.0009V33.0009ZM70.9433 69.7614C70.4899 69.8777 69.7328 70.1502 69.2602 70.3693L68.4014 70.7663L68.3973 89.0446C70.9983 89.5265 71.9203 89.5909 73.6914 89.5867C75.8417 89.5813 76.1137 89.5512 77.1264 89.2171C77.731 89.0172 78.6886 88.553 79.2561 88.1861C79.8222 87.8178 80.6507 87.1209 81.0945 86.6376C81.5397 86.1543 82.1003 85.4204 82.3422 85.0056C82.584 84.5907 82.9399 83.8527 83.135 83.3626C83.3301 82.8724 83.5678 82.1029 83.6653 81.6511C83.7615 81.1993 83.8357 80.2436 83.8275 79.5289C83.8192 78.7156 83.7134 77.8435 83.5444 77.2014C83.396 76.6373 83.0566 75.7432 82.7915 75.2161C82.5263 74.689 82.0096 73.8606 81.6414 73.3746C81.2745 72.8885 80.5092 72.1273 79.9431 71.6823C79.3757 71.2373 78.4798 70.6691 77.9508 70.4186C77.4218 70.1694 76.618 69.8668 76.1646 69.7463C75.7112 69.6258 74.7219 69.504 73.9662 69.4738C73.2105 69.4437 72.4067 69.4492 72.1799 69.4862C71.9532 69.5218 71.3968 69.6464 70.9433 69.7614V69.7614Z" fill="white" stroke="white" stroke-width="0.757752"/>
</svg>
