<svg width="715" height="346" viewBox="0 0 715 346" fill="none" xmlns="http://www.w3.org/2000/svg">
<path fill-rule="evenodd" clip-rule="evenodd" d="M334.379 34.2238C323.679 52.7273 313.776 69.8381 312.283 72.1759C310.79 74.5137 308.7 78.294 307.605 80.6318C306.51 82.9696 305.067 86.9986 304.42 89.5852C303.773 92.1717 303.126 96.6483 302.927 99.5333C302.778 102.468 302.877 106.596 303.225 108.984C303.524 111.322 304.121 114.555 304.519 116.196C304.967 117.838 306.062 120.972 306.908 123.16C307.804 125.349 309.844 129.129 311.487 131.616C313.079 134.103 316.065 137.784 318.155 139.823C320.245 141.912 323.182 144.3 324.675 145.145C326.168 145.991 328.606 147.085 330.049 147.583L332.637 148.528V178.124C325.869 183.297 322.236 186.48 320.146 188.569C318.105 190.608 314.97 194.19 313.278 196.528C311.536 198.865 309.396 202.347 308.451 204.237C307.505 206.128 306.61 208.366 306.46 209.211L306.162 210.704C312.233 212.047 313.975 212.395 314.025 212.345C314.025 212.246 314.473 211.201 314.92 209.958C315.418 208.714 317.011 205.929 318.404 203.74C319.847 201.551 322.584 198.119 324.476 196.08C326.367 194.041 329.452 191.106 331.393 189.564C333.334 187.972 337.116 185.187 339.853 183.346C342.59 181.506 348.612 178.124 353.29 175.885C357.968 173.597 363.99 170.911 366.727 169.966C369.464 168.971 373.396 167.429 375.436 166.584C377.476 165.738 381.159 163.848 383.647 162.455C386.136 161.013 390.017 158.277 392.356 156.387C394.695 154.447 397.831 151.363 399.423 149.473C400.966 147.583 403.106 144.598 404.201 142.808C405.296 141.017 406.739 138.182 407.485 136.441C408.182 134.75 409.227 131.517 409.774 129.228C410.322 126.99 410.919 123.409 411.118 121.27L411.516 117.44H403.554C402.957 119.927 402.807 121.22 402.807 121.917C402.807 122.613 402.359 124.951 401.812 127.139C401.264 129.328 400.17 132.462 399.423 134.103C398.627 135.744 397.034 138.53 395.84 140.321C394.646 142.111 392.108 145.145 390.167 147.036C388.226 148.975 384.742 151.811 382.403 153.353C380.064 154.845 376.929 156.735 375.436 157.481C373.943 158.227 369.215 160.167 364.985 161.809C360.755 163.4 355.281 165.639 352.792 166.783C350.304 167.927 346.572 169.817 344.432 171.011L340.6 173.149V150.02C343.486 150.617 346.472 151.015 349.06 151.313C352.444 151.711 355.082 151.711 358.416 151.313C360.904 151.015 364.388 150.269 366.13 149.622C367.822 149.025 370.36 147.881 371.703 147.085C373.097 146.29 375.884 143.952 377.924 141.863C380.313 139.425 382.304 136.839 383.498 134.6C384.493 132.661 385.787 129.427 386.335 127.388C387.131 124.652 387.38 122.215 387.38 118.186C387.38 114.207 387.131 111.72 386.384 109.083C385.837 107.144 384.891 104.557 384.344 103.363C383.747 102.219 382.353 99.9312 381.159 98.2898C380.014 96.6483 377.725 94.1116 376.133 92.6691C374.341 91.0774 371.405 89.1375 368.718 87.8442C366.229 86.6505 362.994 85.4069 361.501 85.009C359.909 84.6608 356.326 84.3624 353.041 84.4121C348.313 84.4619 346.621 84.7106 343.337 85.7551C341.147 86.5012 337.912 87.9437 336.121 89.038L332.886 90.9779L332.388 139.724C328.905 138.082 326.615 136.341 324.973 134.849C323.381 133.357 321.042 130.77 319.798 129.129C318.553 127.488 316.612 124.155 315.418 121.668C314.273 119.181 312.93 115.749 312.482 113.958C312.034 112.167 311.437 108.885 311.188 106.596C310.889 103.91 310.939 100.926 311.288 97.8918C311.586 95.4048 312.532 91.1769 313.378 88.5903C314.224 86.0038 316.065 82.0743 317.409 79.8857C318.752 77.6971 327.312 62.9242 336.519 47.0569C345.676 31.1896 353.439 17.9089 353.738 17.5607C354.136 17.0633 358.267 23.7783 371.654 46.9077C381.159 63.4216 389.122 77.1002 389.321 77.2992C389.47 77.5479 391.112 76.8515 393.003 75.807C394.845 74.7624 396.338 73.6681 396.338 73.4194C396.338 73.1707 386.932 56.7066 375.486 36.8601C364.039 17.0135 354.435 0.748349 354.236 0.698608C353.987 0.599127 345.029 15.7203 334.379 34.2238V34.2238ZM347.816 93.0173C348.612 92.8183 351.2 92.6193 353.539 92.6193C356.475 92.5696 358.764 92.868 361.004 93.5147C362.795 94.0618 365.582 95.3551 367.225 96.4494C368.867 97.4939 371.405 99.6825 372.848 101.324C374.341 102.916 376.083 105.353 376.73 106.746C377.377 108.089 378.223 110.576 378.671 112.217C379.069 113.859 379.417 116.545 379.417 118.186C379.417 119.827 379.069 122.513 378.671 124.155C378.223 125.796 377.277 128.383 376.581 129.875C375.834 131.367 373.843 134.053 372.151 135.844C370.459 137.635 368.021 139.674 366.677 140.42C365.333 141.166 362.895 142.111 361.253 142.509C359.61 142.957 356.276 143.305 353.788 143.305C351.299 143.305 347.418 142.957 345.079 142.559C342.74 142.161 340.799 141.813 340.749 141.813C340.649 141.813 340.6 131.417 340.6 95.554L343.486 94.4597C345.029 93.8628 347.02 93.2162 347.816 93.0173V93.0173ZM561.213 232.341C557.729 237.514 556.982 238.956 557.43 239.454C557.862 239.852 558.227 239.885 558.525 239.553C558.724 239.255 561.013 236.27 563.601 232.888C567.383 227.964 568.13 226.67 567.533 226.322C567.135 226.073 566.488 225.875 566.189 225.875C565.841 225.875 563.601 228.809 561.213 232.341V232.341ZM652.284 227.715C651.637 227.814 650.592 228.61 649.896 229.406C649 230.401 648.651 231.445 648.651 232.838C648.651 233.933 648.95 235.425 649.348 236.171C649.696 236.967 650.393 237.713 650.841 237.912C651.289 238.16 652.633 238.31 653.877 238.31C655.768 238.31 656.315 238.061 657.36 236.817C658.306 235.723 658.605 234.728 658.605 233.087C658.605 231.346 658.306 230.55 657.211 229.406C656.465 228.61 655.32 227.864 654.623 227.765C653.927 227.615 652.882 227.615 652.284 227.715V227.715ZM0.697754 230.202C0.697754 230.55 1.19541 230.849 1.79261 230.849C2.43956 230.849 3.48465 231.396 4.18138 232.142L5.42553 233.435C5.67436 270.144 5.52506 281.634 5.32599 282.579C5.0274 283.822 4.43021 284.519 3.28559 285.066C2.43956 285.464 1.69307 285.961 1.69307 286.16C1.69307 286.409 11.696 286.508 23.9385 286.409L46.1839 286.309C48.075 276.461 48.2741 274.222 47.9755 273.874C47.6437 273.543 47.1958 273.791 46.6318 274.62C46.1341 275.317 44.7407 276.958 43.4965 278.251C42.2524 279.594 40.2617 281.286 39.0176 282.081C37.7734 282.877 35.534 283.872 34.041 284.32C32.1996 284.917 28.6165 285.265 22.9432 285.514L14.5825 285.812L14.8811 233.435C16.8219 231.396 17.867 230.849 18.4642 230.849C19.1112 230.849 19.6088 230.55 19.6088 230.202C19.6088 229.754 17.3694 229.605 10.1533 229.605C2.93723 229.605 0.697754 229.754 0.697754 230.202V230.202ZM359.561 230.053C359.511 230.55 359.909 230.849 360.606 230.849C361.253 230.849 362.099 231.147 362.596 231.495C363.044 231.843 363.641 232.689 363.94 233.435C364.288 234.38 364.487 242.538 364.487 258.455C364.487 273.029 364.288 282.579 363.99 283.325C363.691 284.021 362.795 284.867 361.999 285.165C361.153 285.514 360.506 285.961 360.506 286.16C360.506 286.409 364.288 286.558 368.966 286.558C374.291 286.558 377.427 286.359 377.427 286.061C377.427 285.762 376.879 285.464 376.182 285.315C375.353 285.149 374.689 284.486 374.192 283.325C373.644 282.081 373.445 279.744 373.445 275.217C373.445 271.039 373.694 268.005 374.192 266.264C374.689 264.473 375.585 262.981 377.028 261.539C378.322 260.245 380.263 258.952 381.906 258.355C383.398 257.758 387.43 256.714 390.863 256.067C394.297 255.371 397.731 254.525 398.577 254.227C399.423 253.879 400.667 253.232 401.414 252.685C402.21 252.187 403.305 250.795 403.902 249.601C404.748 247.959 404.997 246.666 404.997 243.532C405.047 240.25 404.798 239.106 403.803 237.116C403.106 235.773 401.762 234.032 400.817 233.236C399.871 232.44 397.632 231.346 395.84 230.749C392.854 229.754 391.262 229.655 376.133 229.456C361.253 229.257 359.61 229.356 359.561 230.053V230.053ZM373.545 230.749L380.562 230.948C386.534 231.097 387.927 231.296 389.619 232.142C390.714 232.739 392.356 234.032 393.202 235.027C394.098 236.022 395.093 237.414 395.392 238.16C395.691 238.956 395.94 240.996 395.989 242.786C395.989 245.323 395.74 246.517 394.795 248.258C394.148 249.452 392.804 250.994 391.859 251.59C390.913 252.237 389.122 253.132 387.877 253.53C386.633 253.978 384.493 254.774 383.15 255.271C381.756 255.769 379.666 256.913 378.472 257.808C377.227 258.703 375.585 260.444 373.445 263.926L373.495 247.362L373.545 230.749ZM170.35 240.15C169.703 241.394 167.912 243.781 166.419 245.423C164.926 247.064 162.089 249.452 160.198 250.695C158.257 251.939 155.022 253.68 152.982 254.575C150.941 255.42 147.358 256.664 145.019 257.36C142.68 258.007 138.649 258.853 136.061 259.201C133.474 259.499 129.89 259.648 128.099 259.499C126.307 259.35 123.869 258.853 122.625 258.405C121.38 258.007 119.838 257.161 119.191 256.515C118.593 255.918 117.747 254.824 117.349 254.077C116.951 253.331 116.653 251.939 116.653 250.944C116.653 249.999 116.901 248.606 117.2 247.86C117.449 247.114 118.195 245.97 118.793 245.323C119.39 244.677 120.783 243.682 121.878 243.184C123.122 242.637 125.013 242.289 126.855 242.289C128.696 242.289 130.587 242.637 131.831 243.184C132.926 243.731 134.419 244.776 135.166 245.572C135.912 246.318 136.957 248.009 137.505 249.203C138.052 250.446 138.699 252.884 138.898 254.575C139.197 256.962 139.445 257.659 140.043 257.46C140.441 257.36 142.431 256.913 144.372 256.465C147.557 255.769 148.005 255.57 148.005 254.575C148.005 253.978 147.756 252.685 147.408 251.69C147.109 250.745 146.263 249.054 145.517 247.959C144.77 246.865 143.078 245.273 141.735 244.428C140.391 243.532 138.052 242.488 136.559 242.04C135.066 241.593 132.03 241.095 129.841 240.946C126.904 240.697 125.113 240.846 122.973 241.443C121.43 241.891 119.439 242.886 118.544 243.632C117.698 244.378 116.553 245.87 116.055 246.965C115.558 248.059 115.16 249.75 115.16 250.695C115.16 251.69 115.608 253.331 116.105 254.426C116.603 255.52 117.548 256.913 118.195 257.51C118.842 258.057 119.987 258.853 120.783 259.251L122.127 259.897C118.096 260.942 115.757 261.787 114.413 262.484C113.02 263.18 111.278 264.324 110.482 265.07C109.685 265.767 108.64 267.259 108.143 268.353C107.545 269.646 107.197 271.487 107.197 273.576C107.197 275.963 107.496 277.505 108.391 279.296C109.038 280.689 110.083 282.28 110.73 282.877C111.377 283.474 112.92 284.419 114.164 285.016C115.408 285.563 118.096 286.21 120.136 286.459C122.376 286.757 124.964 286.757 126.606 286.508C128.099 286.26 130.189 285.713 131.184 285.315C132.229 284.867 133.872 283.822 134.917 282.927C135.912 282.032 137.355 280.291 138.152 279.047C139.545 276.859 139.545 276.859 139.545 278.301C139.545 279.147 139.993 280.788 140.54 281.932C141.237 283.474 142.133 284.32 143.626 285.116C144.87 285.713 147.209 286.309 149.1 286.459C151.24 286.658 152.484 286.608 152.484 286.26C152.484 286.011 151.937 285.514 151.24 285.165C150.543 284.817 149.647 283.773 149.249 282.778C148.652 281.435 148.503 278.649 148.503 269.348V257.659C150.245 257.211 152.932 256.017 155.619 254.774C159.501 252.933 160.696 252.585 161.342 252.983C161.79 253.282 162.437 254.077 162.786 254.724C163.234 255.619 163.433 259.599 163.433 269C163.433 279.047 163.283 282.38 162.736 283.424C162.388 284.171 161.591 284.966 160.994 285.165C160.447 285.364 159.949 285.762 159.949 286.011C159.949 286.359 163.035 286.508 168.16 286.508C173.286 286.508 176.372 286.359 176.372 286.011C176.372 285.762 176.123 285.514 175.874 285.514C175.576 285.514 174.829 284.966 174.132 284.27L172.888 283.027C172.888 262.185 173.037 258.753 173.635 256.415C174.083 254.774 174.929 252.337 175.526 250.944C176.173 249.601 177.566 247.512 178.611 246.318C179.706 245.124 181.498 243.682 182.593 243.135C184.135 242.339 185.33 242.189 187.868 242.339C190.605 242.488 191.6 242.786 193.292 243.98C194.487 244.826 196.029 246.616 196.826 247.959C197.572 249.352 198.567 251.789 199.065 253.431C199.712 255.719 199.961 259.3 200.11 268.602C200.26 276.212 200.16 281.485 199.861 282.529C199.513 283.723 198.816 284.519 197.771 285.016C196.925 285.464 196.228 285.961 196.278 286.16C196.278 286.359 200.06 286.508 204.738 286.508C210.063 286.508 213.199 286.359 213.199 286.011C213.199 285.762 212.751 285.414 212.203 285.265C211.656 285.165 210.81 284.419 210.312 283.673C209.566 282.529 209.416 280.589 209.168 270.144C208.919 259.648 208.72 257.559 207.874 255.172C207.326 253.68 206.48 251.74 206.032 250.844C205.584 249.949 204.291 248.208 203.096 246.915C201.952 245.671 199.712 243.98 198.12 243.184C196.378 242.289 193.69 241.543 191.152 241.145C188.166 240.747 186.375 240.697 184.583 241.095C183.19 241.394 181.199 242.189 180.104 242.886C179.009 243.632 177.317 245.273 176.372 246.567C175.426 247.91 174.282 249.999 173.784 251.193L172.938 253.431C172.888 239.553 172.739 237.763 172.241 237.763C171.893 237.763 171.047 238.857 170.35 240.15V240.15ZM131.582 260.643C134.469 260.444 137.305 260.295 139.097 260.146L138.948 267.259C138.798 273.377 138.599 274.67 137.654 276.809C137.007 278.202 135.912 279.943 135.166 280.738C134.419 281.485 132.976 282.579 131.931 283.076C130.935 283.623 128.796 284.171 127.203 284.37C125.362 284.568 123.67 284.469 122.376 284.021C121.281 283.623 119.788 282.828 118.992 282.181C118.146 281.485 117.349 280.042 116.901 278.45C116.454 277.008 116.155 275.068 116.155 274.073C116.155 273.128 116.454 271.188 116.901 269.746C117.3 268.303 118.345 266.314 119.24 265.369C120.136 264.374 122.127 262.981 123.62 262.235C125.859 261.141 127.303 260.842 131.582 260.643ZM229.074 239.106C227.034 239.702 224.197 240.299 222.754 240.498C221.161 240.648 220.166 240.996 220.166 241.394C220.166 241.742 220.813 242.289 221.659 242.637C222.505 242.985 223.401 243.881 223.65 244.627C223.998 245.522 224.147 252.337 224.048 264.573L223.898 283.126C221.758 285.016 220.713 285.514 220.166 285.514C219.618 285.514 219.171 285.762 219.171 286.011C219.171 286.359 222.654 286.508 228.626 286.508C233.802 286.508 238.082 286.359 238.082 286.16C238.082 285.961 237.435 285.613 236.589 285.414C235.792 285.215 234.698 284.419 234.2 283.673C233.453 282.529 233.354 280.987 233.354 271.139C233.404 262.334 233.603 259.201 234.25 256.565C234.698 254.724 235.743 251.939 236.539 250.347C237.335 248.755 238.928 246.567 240.122 245.472C241.316 244.328 243.208 243.135 244.302 242.786C245.397 242.438 247.537 242.239 249.08 242.339C251.22 242.488 252.414 242.886 254.007 243.98C255.201 244.826 256.744 246.616 257.54 247.959C258.287 249.352 259.282 251.789 259.73 253.431C260.377 255.669 260.626 259.499 260.825 268.353C260.974 276.063 260.875 281.037 260.576 282.28C260.211 283.607 259.597 284.486 258.735 284.917C258.038 285.265 257.142 285.514 256.744 285.514C256.346 285.514 255.997 285.762 255.997 286.011C255.997 286.359 259.481 286.508 265.453 286.508C271.425 286.508 274.909 286.359 274.909 286.011C274.909 285.762 274.461 285.514 273.913 285.514C273.366 285.514 272.321 285.016 271.524 284.32L270.181 283.126C269.683 262.732 269.335 257.161 268.937 255.918C268.588 254.824 267.742 252.834 267.046 251.441C266.349 250.098 264.856 247.959 263.711 246.716C262.417 245.373 260.377 243.93 258.436 243.035C256.694 242.239 253.609 241.394 251.568 241.095C248.98 240.747 247.139 240.797 245.248 241.195C243.755 241.493 241.615 242.388 240.421 243.184C239.276 243.93 237.584 245.671 236.688 247.014C235.792 248.357 234.648 250.695 234.2 252.187L233.354 254.923L232.757 238.011L229.074 239.106ZM420.922 238.757C419.578 239.255 416.742 239.951 414.602 240.349C412.213 240.747 410.77 241.244 410.77 241.642C410.77 241.991 411.218 242.239 411.765 242.239C412.313 242.239 413.208 242.886 413.806 243.632C414.801 244.975 414.801 245.472 414.652 264.075L414.502 283.126C412.362 284.966 411.317 285.514 410.77 285.514C410.222 285.514 409.774 285.762 409.774 286.011C409.774 286.359 413.258 286.508 419.23 286.508C424.455 286.508 428.686 286.359 428.686 286.16C428.686 285.961 427.989 285.563 427.093 285.265C426.197 285.016 425.202 284.22 424.854 283.524C424.356 282.629 424.256 279.097 424.306 269.547L424.455 256.763C426.994 253.083 428.337 252.038 430.427 250.994C433.015 249.75 433.961 249.551 437.395 249.551C439.584 249.551 441.874 249.7 442.521 249.899C443.615 250.198 443.615 250.148 443.615 245.472V240.747C440.331 240.797 438.141 241.045 436.648 241.394C435.155 241.742 432.916 242.637 431.672 243.334C430.427 244.03 428.686 245.472 427.74 246.567C426.794 247.611 425.65 249.352 425.152 250.446L424.256 252.436C424.306 241.443 424.107 238.26 423.858 238.111C423.609 238.011 422.266 238.31 420.922 238.757V238.757ZM598.836 239.106C596.795 239.702 593.959 240.299 592.565 240.449C590.674 240.697 589.927 240.996 589.927 241.493C589.927 241.941 590.276 242.239 590.674 242.239C591.072 242.239 591.968 242.836 592.665 243.483L593.909 244.726C593.859 290.836 593.71 298.695 593.262 299.938C592.913 301.033 592.167 301.928 591.321 302.326C590.525 302.674 589.927 303.122 589.927 303.321C589.927 303.52 593.859 303.669 598.637 303.669C603.414 303.669 607.346 303.52 607.346 303.321C607.346 303.122 606.798 302.724 606.101 302.425C605.405 302.177 604.509 301.182 604.111 300.187C603.514 298.794 603.364 296.059 603.414 286.658V274.819C605.305 278.5 606.798 280.49 607.993 281.684C609.187 282.828 611.227 284.37 612.571 285.016C614.761 286.11 615.706 286.26 620.534 286.26C625.56 286.26 626.257 286.16 628.745 284.867C630.238 284.121 632.428 282.529 633.622 281.385C634.767 280.241 636.26 278.202 636.956 276.809C637.603 275.466 638.499 272.979 638.947 271.337C639.345 269.696 639.694 266.463 639.694 264.125C639.694 261.837 639.395 258.455 638.997 256.664C638.648 254.923 637.753 252.287 637.006 250.844C636.309 249.402 634.767 247.263 633.622 246.119C632.428 244.925 630.437 243.483 629.143 242.886C627.799 242.239 625.112 241.493 623.072 241.195C619.936 240.697 618.891 240.697 616.104 241.443C614.313 241.891 611.974 242.786 610.979 243.433C609.933 244.03 608.291 245.572 607.246 246.766C606.251 247.959 604.957 249.999 604.409 251.193L603.414 253.431C603.464 241.642 603.265 238.26 603.016 238.16C602.767 238.061 600.876 238.459 598.836 239.106ZM614.313 243.334C615.806 242.786 618.195 242.289 619.538 242.289C621.031 242.239 622.723 242.637 623.768 243.184C624.714 243.682 626.207 245.074 627.003 246.268C627.849 247.462 628.944 250.048 629.442 251.939C629.89 253.879 630.437 257.908 630.586 260.892C630.736 264.125 630.636 268.204 630.288 270.84C629.939 273.327 629.292 276.361 628.894 277.555C628.446 278.799 627.551 280.689 626.804 281.733C626.058 282.828 624.614 284.021 623.271 284.668C621.479 285.464 620.484 285.613 618.294 285.364C616.801 285.165 614.562 284.519 613.318 283.922C612.123 283.275 610.182 281.833 608.988 280.689C607.794 279.495 606.151 277.058 605.255 275.217C603.812 272.183 603.663 271.288 603.464 266.115C603.315 262.981 603.464 259.3 603.762 257.908C604.061 256.565 604.808 254.077 605.405 252.436C606.201 250.446 607.395 248.656 609.087 246.915C610.68 245.273 612.521 244.03 614.313 243.334V243.334ZM47.4778 241.642C47.4778 241.991 47.9755 242.239 48.6224 242.239C49.2196 242.239 50.2647 242.836 50.9614 243.532C52.2056 244.826 52.2056 244.826 52.5042 257.36C52.753 267.308 52.9521 270.392 53.6488 272.581C54.1465 274.123 54.9925 276.113 55.5897 277.058C56.1371 278.052 57.3813 279.694 58.3766 280.738C59.3719 281.783 60.9644 283.176 61.91 283.773C62.8555 284.419 64.9955 285.315 66.6377 285.762C68.7777 286.409 70.8679 286.608 74.1524 286.459C78.1337 286.309 78.9299 286.11 81.0699 284.767C82.4136 283.922 84.3047 282.081 85.3995 280.539C86.4446 279.047 87.7385 276.61 88.286 275.068L89.2315 272.332C89.2813 278.998 89.5301 280.291 90.3761 281.982C91.1724 283.474 92.1677 284.519 93.5114 285.215C94.8551 285.912 96.6467 286.309 98.8861 286.409C100.727 286.459 102.22 286.359 102.22 286.16C102.27 285.961 101.673 285.514 100.976 285.165C100.28 284.817 99.3838 283.773 98.9857 282.778C98.3885 281.335 98.2392 277.704 98.2392 261.041V240.996C86.992 240.996 84.3047 241.195 84.3047 241.493C84.3047 241.792 84.9516 242.189 85.7977 242.388C86.5939 242.587 87.6888 243.334 88.1864 244.08C88.9329 245.273 89.0324 246.766 89.0324 256.415C88.9827 265.02 88.7836 268.104 88.1367 270.741C87.6888 272.581 86.6934 275.267 85.9967 276.709C85.2502 278.152 84.0558 280.092 83.3094 281.037C82.6126 282.032 80.7713 283.424 79.2783 284.171C77.3872 285.116 75.8445 285.563 74.1026 285.563C72.5101 285.514 70.8181 285.116 69.3749 284.419C68.1307 283.773 66.4387 282.33 65.4931 281.037C64.5973 279.843 63.5025 277.704 63.1043 276.312C62.756 274.969 62.2086 272.183 61.91 270.094C61.6611 268.055 61.4621 260.693 61.4123 253.68V240.996C49.2196 240.996 47.4778 241.145 47.4778 241.642V241.642ZM295.561 241.344C294.467 241.593 292.824 242.289 291.879 242.886C290.933 243.483 289.639 245.025 288.943 246.218C287.897 248.109 287.748 248.954 287.897 251.441C288.047 253.481 288.495 254.973 289.241 256.067C289.838 256.962 291.282 258.156 292.476 258.703L294.566 259.748C288.345 261.787 285.558 263.081 284.414 263.876C283.219 264.722 281.677 266.413 280.93 267.607C279.835 269.497 279.636 270.442 279.636 273.626C279.636 276.61 279.885 277.804 280.93 279.843C281.776 281.534 282.921 282.828 284.663 283.922C286.006 284.867 287.997 285.812 289.092 286.11C290.187 286.459 292.974 286.707 295.313 286.707C297.652 286.707 300.439 286.459 301.533 286.11C302.628 285.812 304.669 284.867 306.012 283.922C307.406 283.027 309.197 281.286 310.043 280.042L311.536 277.804C312.532 281.286 313.527 282.977 314.423 283.872C315.269 284.718 316.861 285.663 317.956 285.961C319.051 286.26 321.141 286.508 322.584 286.508C323.978 286.508 325.172 286.309 325.172 286.011C325.172 285.762 324.625 285.414 323.928 285.265C323.182 285.116 322.336 284.37 321.838 283.424C321.091 282.032 320.942 279.793 320.693 267.358C320.444 253.331 320.395 252.884 319.2 250.247C318.454 248.656 317.06 246.766 315.717 245.622C314.473 244.577 312.233 243.234 310.74 242.687C309.247 242.14 306.46 241.493 304.519 241.244C302.628 240.996 300.239 240.797 299.294 240.846C298.348 240.846 296.656 241.095 295.561 241.344V241.344ZM293.869 243.632C295.86 242.587 297.253 242.239 299.294 242.239C301.185 242.239 302.877 242.637 304.669 243.483C306.311 244.279 307.704 245.423 308.501 246.616C309.197 247.611 310.043 249.501 310.442 250.695C310.84 251.939 311.288 254.177 311.835 258.405L304.42 258.803C299.294 259.052 296.557 259.002 295.313 258.604C294.367 258.305 292.824 257.51 291.978 256.863C291.033 256.167 289.988 254.774 289.54 253.58C289.042 252.187 288.843 250.844 289.042 249.7C289.241 248.755 289.789 247.313 290.286 246.467C290.784 245.671 292.426 244.378 293.869 243.632ZM299.792 260.942C301.285 260.544 304.569 260.196 311.586 260.146L311.487 266.761C311.387 270.392 311.138 274.123 310.84 275.068C310.541 276.063 309.546 277.953 308.65 279.296C307.605 280.888 306.211 282.181 304.768 282.927C303.275 283.723 301.334 284.171 299.045 284.37C296.059 284.568 295.263 284.419 293.372 283.474C291.779 282.629 290.784 281.634 289.938 280.042C288.943 278.102 288.793 277.257 288.943 273.526C289.092 269.845 289.291 269 290.585 266.911C291.58 265.286 292.907 264.009 294.566 263.081C295.96 262.334 298.299 261.389 299.792 260.942V260.942ZM463.522 241.543C461.73 241.941 459.292 242.737 458.048 243.334C456.803 243.93 454.713 245.472 453.37 246.716C452.026 247.959 450.384 249.85 449.687 250.944C448.99 252.038 448.144 253.829 447.746 254.923C447.348 256.017 446.85 258.405 446.651 260.146C446.402 261.936 446.452 265.07 446.701 267.11C446.999 269.646 447.696 272.034 448.841 274.471C449.836 276.511 451.578 279.097 452.971 280.44C454.315 281.833 456.803 283.574 458.794 284.569C461.979 286.11 462.775 286.26 467.752 286.459C472.281 286.608 473.823 286.508 476.71 285.613C478.85 285.016 481.338 283.773 483.179 282.43C484.822 281.236 486.912 279.147 487.808 277.804C488.703 276.461 489.898 274.123 490.445 272.581C491.042 271.089 491.64 268.055 491.789 265.866C491.938 263.578 491.789 260.544 491.441 258.654C491.092 256.913 490.296 254.326 489.649 252.933C489.002 251.59 487.409 249.253 486.066 247.81C484.424 245.97 482.582 244.627 480.193 243.433C478.302 242.538 475.267 241.543 473.475 241.294C471.683 240.996 469.444 240.797 468.498 240.797C467.553 240.846 465.313 241.145 463.522 241.543V241.543ZM464.019 243.433C465.512 242.637 467.055 242.239 468.847 242.239C470.29 242.239 472.33 242.587 473.375 243.035C474.371 243.433 475.963 244.527 476.859 245.373C477.805 246.268 479.099 248.059 479.745 249.352C480.392 250.645 481.288 253.083 481.686 254.824C482.085 256.614 482.433 260.345 482.433 263.628C482.433 267.806 482.184 270.442 481.438 273.327C480.89 275.516 479.795 278.301 479.049 279.545C478.302 280.738 476.76 282.479 475.615 283.375C474.188 284.469 472.695 285.132 471.136 285.364C469.743 285.514 467.802 285.414 466.508 285.066C465.264 284.718 463.522 283.872 462.576 283.126C461.581 282.38 460.187 280.788 459.441 279.545C458.645 278.351 457.699 276.212 457.251 274.819C456.853 273.476 456.256 270.442 455.957 268.104C455.509 265.02 455.509 262.633 455.908 259.151C456.206 256.565 457.002 253.083 457.6 251.441C458.247 249.8 459.441 247.611 460.287 246.517C461.083 245.423 462.775 244.03 464.019 243.433V243.433ZM513.785 241.294C512.292 241.593 509.705 242.438 508.062 243.234C506.271 244.08 504.031 245.721 502.538 247.313C501.145 248.755 499.552 250.894 498.955 252.088C498.358 253.232 497.512 255.47 497.114 257.062C496.716 258.604 496.367 261.688 496.367 263.876C496.367 266.065 496.666 269 497.014 270.343C497.412 271.735 498.258 273.974 498.905 275.317C499.552 276.709 501.294 278.998 502.737 280.44C504.28 281.982 506.669 283.673 508.709 284.668C511.646 286.061 512.641 286.26 517.02 286.409C521.151 286.608 522.445 286.459 524.734 285.563C526.227 285.016 528.367 283.822 529.462 282.927C530.507 282.032 532.249 279.943 533.294 278.301C534.339 276.66 535.185 275.068 535.185 274.72C535.185 274.372 534.886 274.073 534.588 274.073C534.239 274.073 533.493 275.018 532.945 276.162C532.398 277.257 531.154 279.097 530.208 280.191C529.263 281.286 527.571 282.728 526.476 283.325C525.381 283.972 523.241 284.767 521.748 285.066C519.509 285.563 518.513 285.514 516.274 284.867C514.283 284.32 512.939 283.524 511.397 281.982C510.202 280.788 508.709 278.699 508.013 277.306C507.366 275.963 506.47 273.178 506.022 271.089C505.425 268.353 505.275 265.767 505.475 261.141C505.624 256.813 506.022 254.127 506.669 252.187C507.216 250.695 508.361 248.407 509.207 247.164C510.302 245.572 511.646 244.378 513.437 243.483C515.627 242.388 516.572 242.189 519.309 242.339C521.848 242.488 523.042 242.786 524.634 243.881C525.779 244.627 527.421 246.169 528.218 247.362C529.064 248.507 530.109 250.496 530.557 251.69C531.004 252.933 531.552 254.177 531.801 254.426C532 254.724 532.298 254.824 532.448 254.674C532.547 254.575 533.194 252.536 533.891 250.198C534.837 247.014 534.986 245.87 534.538 245.572C534.19 245.373 532.945 244.677 531.701 244.03C530.457 243.383 528.218 242.488 526.725 242.04C525.232 241.593 522.295 241.145 520.255 241.045C518.215 240.896 515.278 241.045 513.785 241.294V241.294ZM557.58 241.294C556.087 241.543 553.3 242.538 551.359 243.433C549.02 244.577 547.079 245.97 545.437 247.81C544.143 249.253 542.6 251.292 542.102 252.337C541.605 253.331 540.808 255.47 540.41 257.062C540.012 258.604 539.664 261.439 539.664 263.28C539.664 265.12 539.913 267.806 540.211 269.248C540.51 270.691 541.406 273.178 542.152 274.819C543.081 276.809 544.607 278.815 546.731 280.838C548.87 282.877 550.811 284.22 552.852 285.016C555.091 285.911 557.132 286.26 561.063 286.409C565.393 286.608 566.886 286.459 569.772 285.613C571.713 285.066 574.351 283.872 575.744 282.927C577.088 282.032 579.128 280.191 580.223 278.799C581.368 277.456 582.811 274.969 583.508 273.327C584.553 270.691 584.702 269.597 584.702 263.628C584.702 257.062 584.652 256.863 583.11 253.58C582.214 251.74 580.372 249.054 579.029 247.611C577.685 246.169 575.396 244.378 573.953 243.632C572.46 242.886 569.722 241.941 567.782 241.543C565.89 241.095 563.402 240.797 562.307 240.846C561.212 240.846 559.073 241.095 557.58 241.294V241.294ZM557.729 243.234C559.321 242.488 560.615 242.239 563.104 242.339C565.691 242.488 566.786 242.786 568.429 243.881C569.573 244.627 571.215 246.318 572.012 247.611C572.858 248.904 573.903 251.093 574.301 252.436C574.699 253.829 575.296 256.962 575.645 259.4C576.043 262.782 576.043 264.971 575.595 268.353C575.296 270.84 574.55 274.173 574.002 275.814C573.405 277.456 572.36 279.644 571.614 280.639C570.867 281.634 569.374 283.027 568.279 283.773C567.184 284.469 565.393 285.165 564.298 285.315C563.203 285.514 561.511 285.514 560.566 285.364C559.62 285.215 557.729 284.32 556.385 283.424C554.643 282.28 553.449 280.937 552.304 278.799C551.359 277.157 550.264 274.272 549.816 272.332C549.368 270.343 549.02 266.662 549.02 263.628C549.02 260.544 549.318 257.062 549.816 255.072C550.264 253.232 551.16 250.645 551.807 249.352C552.454 248.059 553.598 246.368 554.295 245.622C554.992 244.875 556.535 243.781 557.729 243.234V243.234ZM655.569 241.792C654.375 242.289 651.637 242.936 649.497 243.334C647.109 243.731 645.665 244.229 645.665 244.627C645.665 244.975 645.914 245.224 646.163 245.224C646.462 245.224 647.208 245.821 647.905 246.467L649.149 247.711C649.149 279.147 649.05 282.28 648.403 283.524C647.905 284.568 647.208 285.116 646.163 285.265C645.367 285.414 644.67 285.762 644.67 286.011C644.67 286.359 648.154 286.508 654.126 286.508C660.098 286.508 663.581 286.359 663.581 286.011C663.581 285.762 663.233 285.514 662.835 285.514C662.437 285.514 661.541 285.265 660.844 284.917C660.147 284.569 659.351 283.623 659.102 282.778C658.804 281.882 658.605 273.377 658.654 261.29C658.704 249.551 658.505 241.244 658.256 241.145C658.007 241.045 656.813 241.344 655.569 241.792V241.792ZM685.976 241.294C684.483 241.543 681.845 242.438 680.153 243.284C678.412 244.08 675.923 245.821 674.629 247.114C673.286 248.407 671.594 250.645 670.897 252.088C670.15 253.53 669.205 255.968 668.807 257.559C668.409 259.101 668.06 261.738 668.06 263.379C668.06 265.02 668.408 267.856 668.856 269.597C669.255 271.387 670.349 274.173 671.195 275.764C672.091 277.356 673.833 279.694 675.177 280.888C676.471 282.081 679.009 283.773 680.9 284.668C684.184 286.26 684.383 286.26 691.002 286.26H697.721C703.842 283.275 705.982 281.733 707.525 280.092C708.819 278.699 710.511 276.162 711.357 274.471C712.153 272.73 713.049 269.796 713.347 267.856C713.696 265.916 713.795 262.981 713.596 261.141C713.397 259.4 712.75 256.565 712.153 254.923C711.605 253.282 710.312 250.844 709.316 249.452C708.321 248.109 706.28 246.119 704.837 245.124C703.344 244.08 700.906 242.836 699.413 242.289C697.92 241.742 694.884 241.195 692.694 241.045C690.505 240.946 687.469 241.045 685.976 241.294V241.294ZM686.474 243.035C687.419 242.637 689.46 242.289 690.953 242.289C692.844 242.289 694.386 242.637 695.879 243.383C697.124 243.98 698.666 245.174 699.313 245.97C700.01 246.815 701.055 248.507 701.652 249.7C702.299 250.944 703.195 253.879 703.693 256.167C704.34 259.4 704.439 261.738 704.24 265.866C704.091 269.199 703.593 272.631 702.946 274.571C702.399 276.361 701.204 278.948 700.309 280.291C699.164 282.032 697.87 283.176 695.929 284.171C693.64 285.414 692.794 285.613 690.455 285.414C688.962 285.265 687.071 284.817 686.225 284.419C685.428 283.972 683.985 282.877 683.089 281.982C682.194 281.037 680.9 279.197 680.253 277.804C679.556 276.461 678.66 273.775 678.262 271.835C677.864 269.945 677.516 266.115 677.516 263.379C677.516 260.643 677.864 256.962 678.212 255.172C678.611 253.431 679.457 250.844 680.153 249.452C680.85 248.109 682.144 246.268 683.089 245.373C683.985 244.527 685.528 243.483 686.474 243.035V243.035ZM262.467 300.038C261.87 300.535 261.77 303.022 261.87 314.861C261.92 322.67 262.218 330.529 262.517 332.27C262.815 334.06 263.661 336.597 264.358 337.94C265.105 339.283 266.598 341.024 267.692 341.82C268.787 342.616 270.828 343.611 272.171 344.009C273.565 344.407 275.655 344.705 276.849 344.605C278.293 344.506 279.238 344.158 279.587 343.611C279.985 342.964 279.985 342.516 279.587 341.87C279.238 341.273 278.044 340.875 276.252 340.626C274.66 340.427 272.669 339.88 271.823 339.432C270.927 338.935 269.683 337.99 269.036 337.294C268.389 336.597 267.493 335.254 267.095 334.259C266.548 333.115 266.199 330.131 266 325.207L265.702 317.895C276.153 317.646 277.148 317.447 277.596 316.751C277.994 316.104 277.994 315.656 277.596 315.01C277.148 314.264 276.153 314.114 271.524 314.015L265.951 313.866L265.702 299.69C263.761 299.491 262.865 299.69 262.467 300.038V300.038ZM467.005 300.038C466.408 300.535 466.309 303.022 466.408 314.861C466.458 322.67 466.757 330.529 467.055 332.27C467.354 334.06 468.2 336.597 468.897 337.94C469.643 339.283 471.136 341.024 472.231 341.82C473.326 342.616 475.366 343.611 476.71 344.009C478.103 344.407 480.193 344.705 481.388 344.605C482.831 344.506 483.777 344.158 484.125 343.611C484.523 342.964 484.523 342.516 484.125 341.87C483.777 341.273 482.582 340.875 480.641 340.626C479.049 340.378 476.809 339.681 475.714 339.035C474.421 338.288 473.226 336.945 472.281 335.204C470.887 332.668 470.788 332.121 470.539 325.207L470.24 317.895C480.691 317.646 481.686 317.447 482.134 316.751C482.532 316.104 482.532 315.656 482.134 315.01C481.686 314.264 480.691 314.114 476.063 314.015L470.489 313.866L470.24 299.69C468.299 299.491 467.404 299.69 467.005 300.038V300.038ZM314.373 305.708C313.577 306.902 313.527 307.151 314.224 308.345C314.721 309.19 315.518 309.688 316.463 309.837C317.459 309.936 318.205 309.688 318.703 309.091C319.101 308.593 319.399 307.698 319.399 307.151C319.399 306.604 319.101 305.758 318.703 305.261C318.305 304.763 317.359 304.415 316.612 304.415C315.717 304.415 314.92 304.863 314.373 305.708V305.708ZM354.186 305.708C353.39 306.902 353.34 307.151 354.037 308.345C354.567 309.207 355.314 309.688 356.276 309.787C357.122 309.887 358.068 309.638 358.416 309.29C358.764 308.941 359.063 307.996 359.063 307.151C359.063 306.355 358.764 305.41 358.416 305.062C358.068 304.713 357.172 304.415 356.425 304.415C355.496 304.415 354.75 304.846 354.186 305.708ZM429.681 305.012C429.283 305.36 429.034 306.305 429.084 307.151C429.133 307.996 429.432 308.941 429.78 309.29C430.129 309.638 431.025 309.936 431.771 309.886C432.518 309.886 433.463 309.588 433.861 309.14C434.309 308.742 434.657 307.847 434.657 307.151C434.657 306.504 434.309 305.609 433.911 305.161C433.513 304.763 432.518 304.415 431.771 304.415C431.025 304.415 430.079 304.713 429.681 305.012ZM207.625 314.363C206.878 314.562 205.684 315.06 204.888 315.507C204.141 315.955 202.798 317.049 201.902 317.944C201.056 318.84 199.861 320.63 199.314 321.824C198.418 323.864 198.319 325.107 198.269 334.16V344.208C200.21 344.605 201.106 344.456 201.553 344.108C202.151 343.561 202.3 342.019 202.3 334.409C202.25 327.743 202.449 324.908 202.947 323.714C203.295 322.819 204.39 321.377 205.286 320.481C206.231 319.636 207.575 318.691 208.371 318.392C209.118 318.094 210.561 317.845 211.606 317.895C212.601 317.895 214.343 318.293 215.438 318.79C216.533 319.238 218.026 320.432 218.723 321.377C219.469 322.322 220.315 323.864 220.614 324.809C220.962 325.903 221.161 330.031 221.161 335.403V344.208C223.102 344.605 223.998 344.456 224.446 344.108C225.143 343.561 225.242 342.218 225.093 333.513L224.894 323.565C222.604 319.437 221.111 317.596 220.166 316.8C219.22 316.005 217.429 315.01 216.185 314.612C214.94 314.214 212.85 313.915 211.457 313.915C210.113 313.965 208.371 314.114 207.625 314.363ZM230.368 314.214C230.169 314.413 230.02 319.039 230.069 324.51C230.119 333.812 230.219 334.707 231.264 336.995C231.911 338.388 233.404 340.328 234.648 341.372C235.942 342.516 237.932 343.611 239.575 344.058C241.217 344.556 243.307 344.755 244.8 344.605C246.194 344.456 248.483 343.71 249.976 342.914C251.469 342.118 253.26 340.626 254.106 339.482C254.903 338.388 255.848 336.398 256.296 335.006C256.794 333.265 256.993 329.982 257.043 323.814C257.043 317.348 256.893 314.96 256.396 314.463C256.047 314.114 255.201 313.915 254.504 313.965L253.26 314.114C252.763 332.618 252.663 333.712 251.668 335.652C251.021 336.796 249.677 338.288 248.682 338.985C247.637 339.631 245.895 340.328 244.8 340.527C243.606 340.726 242.013 340.626 240.819 340.179C239.724 339.83 238.181 338.985 237.385 338.288C236.589 337.592 235.544 336.15 235.046 335.155C234.25 333.513 234.1 332.071 234.1 324.212C234.1 317.547 233.951 314.96 233.503 314.512C233.155 314.164 232.408 313.866 231.811 313.866C231.264 313.866 230.617 314.015 230.368 314.214V314.214ZM292.327 314.761C291.083 315.209 289.191 316.502 288.097 317.596C287.002 318.691 285.708 320.63 285.21 321.824C284.464 323.764 284.364 325.505 284.464 334.259L284.613 344.456C286.653 344.755 287.35 344.456 287.748 343.909C288.196 343.213 288.345 340.427 288.345 333.911C288.345 325.804 288.445 324.61 289.341 322.819C289.888 321.725 291.232 320.233 292.426 319.486C294.118 318.342 295.064 318.094 297.552 318.094C299.991 318.094 300.986 318.342 302.578 319.387C303.673 320.133 305.067 321.675 305.763 323.018C306.858 325.107 307.157 325.356 308.501 325.207C309.844 325.107 309.994 324.908 309.944 323.316C309.944 322.371 309.347 320.73 308.65 319.586C307.903 318.492 306.46 317.049 305.415 316.353C304.37 315.607 302.728 314.761 301.782 314.463C300.837 314.114 298.796 313.866 297.303 313.915C295.81 313.915 293.571 314.313 292.327 314.761V314.761ZM315.169 314.562C314.672 315.109 314.572 318.293 314.771 329.534C314.97 342.516 315.07 343.909 315.866 344.407C316.463 344.804 316.961 344.804 317.608 344.407C318.404 343.909 318.454 342.566 318.553 329.484C318.653 318.691 318.553 314.96 318.056 314.463C317.757 314.114 317.11 313.866 316.662 313.866C316.214 313.866 315.567 314.164 315.169 314.562V314.562ZM333.135 314.761C331.891 315.209 329.8 316.601 328.407 317.895C326.914 319.238 325.421 321.277 324.724 322.869C323.779 324.958 323.48 326.45 323.48 329.285C323.48 332.22 323.729 333.613 324.724 335.752C325.421 337.294 326.964 339.482 328.208 340.626C329.452 341.87 331.493 343.213 333.035 343.76C334.578 344.307 336.867 344.705 338.758 344.705C340.45 344.705 342.64 344.506 343.586 344.257C344.531 343.959 346.124 343.262 347.069 342.616C348.413 341.721 348.811 341.124 348.811 339.98C348.811 338.786 348.562 338.487 347.567 338.338C346.87 338.288 345.228 338.786 343.834 339.482C342.142 340.328 340.55 340.775 338.858 340.775C337.116 340.775 335.573 340.328 333.682 339.383C331.99 338.537 330.497 337.244 329.601 336C328.855 334.906 328.009 332.916 327.661 331.524C327.213 329.683 327.163 328.539 327.611 326.948C327.909 325.754 328.656 324.063 329.303 323.118C329.9 322.222 330.945 320.979 331.642 320.432C332.339 319.884 333.732 319.089 334.777 318.641C335.772 318.193 337.664 317.845 339.007 317.895C340.45 317.895 342.391 318.392 344.083 319.138C345.576 319.835 347.268 320.332 347.816 320.233C348.513 320.133 348.861 319.636 348.96 318.74C349.01 317.746 348.712 317.099 347.716 316.403C346.92 315.855 345.327 315.109 344.083 314.662C342.839 314.214 340.45 313.866 338.609 313.915C336.817 313.915 334.379 314.313 333.135 314.761V314.761ZM355.082 314.313C354.484 314.612 354.385 316.999 354.584 329.285C354.783 342.516 354.883 343.909 355.679 344.407C356.276 344.804 356.774 344.804 357.421 344.407C358.217 343.909 358.267 342.566 358.366 329.484C358.466 318.691 358.366 314.96 357.869 314.463C357.57 314.114 356.923 313.866 356.525 313.866C356.127 313.866 355.48 314.065 355.082 314.313ZM373.943 314.512C372.699 314.861 370.658 315.855 369.364 316.751C368.021 317.646 366.279 319.437 365.483 320.73C364.637 322.023 363.741 323.864 363.492 324.809C363.243 325.803 362.994 327.893 362.994 329.534C362.994 331.175 363.343 333.663 363.84 335.006C364.388 336.746 365.532 338.388 367.424 340.278C369.464 342.317 370.957 343.312 372.948 343.959C374.988 344.605 376.68 344.804 379.417 344.605C381.906 344.456 383.896 344.009 385.29 343.312C386.434 342.715 388.226 341.372 389.271 340.378C390.266 339.333 391.66 337.393 392.356 336C393.302 334.06 393.551 332.717 393.551 329.534C393.601 326.55 393.352 325.008 392.555 323.316C392.008 322.123 390.664 320.133 389.569 318.939C388.524 317.746 386.534 316.253 385.14 315.557C383.548 314.761 381.507 314.264 379.417 314.114C377.576 313.965 375.237 314.164 373.943 314.512ZM373.694 318.989C375.635 318.044 376.78 317.845 378.92 317.994C380.413 318.143 382.353 318.541 383.15 318.989C383.996 319.387 385.389 320.481 386.335 321.377C387.23 322.322 388.375 323.764 388.823 324.56C389.271 325.505 389.569 327.296 389.569 329.285C389.569 331.623 389.271 333.115 388.574 334.508C387.977 335.602 386.783 337.144 385.837 337.94C384.891 338.736 383.349 339.681 382.403 340.079C381.458 340.427 379.616 340.775 378.322 340.775C376.979 340.726 375.088 340.378 374.092 339.98C373.047 339.532 371.455 338.487 370.509 337.592C369.613 336.746 368.419 335.105 367.921 334.011C367.424 332.916 366.976 330.877 366.976 329.435C366.976 327.992 367.274 326.102 367.672 325.207C368.021 324.311 368.966 322.819 369.763 321.874C370.559 320.929 372.35 319.636 373.694 318.989V318.989ZM406.54 314.612C405.445 315.01 404.002 315.756 403.305 316.303C402.608 316.8 401.314 318.143 400.468 319.287C399.572 320.432 398.627 322.172 398.328 323.217C398.079 324.212 397.88 329.285 397.98 334.458C398.079 342.815 398.179 343.909 398.975 344.407C399.572 344.804 400.07 344.804 400.717 344.407C401.464 343.959 401.613 342.715 401.812 334.21C402.011 326.5 402.21 324.262 402.907 323.068C403.355 322.272 404.25 321.128 404.897 320.531C405.544 319.934 406.789 319.089 407.684 318.641C408.53 318.243 410.073 317.845 411.019 317.845C411.964 317.845 413.606 318.193 414.652 318.641C415.647 319.039 417.04 319.884 417.687 320.481C418.284 321.078 419.18 322.272 419.678 323.068C420.325 324.262 420.524 326.5 420.723 334.21C420.922 342.715 421.071 343.959 421.868 344.407C422.465 344.804 422.962 344.804 423.609 344.407C424.356 343.909 424.455 342.815 424.605 334.707C424.704 327.793 424.555 324.958 424.008 323.068C423.56 321.725 422.515 319.735 421.619 318.641C420.723 317.596 418.981 316.154 417.737 315.457C416.045 314.512 414.652 314.164 412.014 314.015C409.774 313.915 407.834 314.114 406.54 314.612V314.612ZM430.179 314.811C429.78 315.507 429.631 319.735 429.631 329.385C429.681 339.482 429.83 343.213 430.278 343.909C430.776 344.605 431.273 344.755 432.318 344.556L433.662 344.208L433.413 314.114C431.174 313.866 430.577 314.114 430.179 314.811ZM446.601 314.313C445.905 314.512 444.511 315.159 443.516 315.756C442.471 316.353 441.276 317.596 440.828 318.492C440.281 319.536 440.082 320.929 440.182 322.421C440.331 324.162 440.779 325.157 441.874 326.301C442.72 327.196 444.213 328.34 445.258 328.838C446.253 329.385 448.592 330.23 450.483 330.728C452.324 331.225 454.365 331.922 455.062 332.27C455.758 332.618 456.803 333.364 457.45 333.961C458.097 334.558 458.545 335.602 458.545 336.398C458.545 337.244 458.048 338.239 457.201 339.035C456.405 339.731 455.012 340.427 454.066 340.576C453.121 340.726 451.08 340.775 449.587 340.676C447.895 340.527 445.855 339.98 444.262 339.134C442.819 338.388 441.077 337.741 440.381 337.741C439.535 337.741 439.037 338.089 438.838 338.885C438.589 339.731 438.888 340.278 440.182 341.372C441.127 342.118 443.466 343.213 445.357 343.81C448.045 344.605 449.737 344.854 452.623 344.655C455.709 344.506 456.803 344.208 458.844 342.964C460.685 341.82 461.531 340.875 462.228 339.233C462.875 337.692 463.074 336.448 462.825 335.155C462.676 334.11 461.929 332.568 461.183 331.723C460.387 330.877 458.794 329.683 457.55 329.037C456.306 328.44 454.216 327.694 452.822 327.345C451.478 326.997 449.239 326.251 447.945 325.654C446.601 325.057 445.158 324.013 444.76 323.316C444.113 322.272 444.113 321.874 444.71 320.68C445.059 319.934 446.104 318.989 446.999 318.591C447.845 318.193 449.786 317.845 451.23 317.845C453.021 317.845 454.564 318.243 456.306 319.089C457.699 319.785 459.292 320.332 459.939 320.332C460.735 320.332 461.133 319.984 461.282 319.089C461.432 318.442 461.332 317.596 461.083 317.248C460.884 316.9 459.441 316.054 457.998 315.408C456.107 314.562 454.166 314.164 451.578 314.065C449.538 313.965 447.298 314.065 446.601 314.313V314.313ZM495.571 314.711C494.178 315.209 492.137 316.303 491.092 317.149C490.047 317.994 488.405 319.785 487.509 321.128C486.514 322.62 485.717 324.659 485.469 326.301C485.22 327.743 485.12 330.131 485.27 331.524C485.419 332.867 486.016 335.055 486.563 336.249C487.161 337.493 488.504 339.333 489.5 340.378C490.545 341.372 492.336 342.715 493.531 343.312C494.825 343.959 496.915 344.456 499.104 344.605C501.493 344.804 503.384 344.605 505.076 344.058C506.47 343.611 508.61 342.367 509.953 341.273L512.292 339.233C512.541 344.406 512.591 344.456 514.034 344.456H515.527L515.776 325.555C513.437 320.63 512.044 318.74 510.949 317.845C509.904 316.999 508.162 315.905 507.067 315.358C505.922 314.811 503.583 314.264 501.593 314.114C499.005 313.915 497.462 314.065 495.571 314.711V314.711ZM496.865 318.492C497.811 318.193 499.503 317.895 500.597 317.895C501.692 317.895 503.733 318.392 505.076 319.039C506.47 319.685 508.162 320.879 508.908 321.675C509.655 322.421 510.65 323.963 511.098 325.057C511.546 326.152 511.944 328.191 511.894 329.534C511.894 331.026 511.496 332.817 510.899 334.011C510.352 335.105 509.257 336.647 508.51 337.443C507.714 338.239 506.171 339.283 505.076 339.83C503.982 340.328 501.991 340.726 500.597 340.726C498.856 340.775 497.313 340.328 495.372 339.383C493.381 338.388 492.187 337.343 490.993 335.503C490.047 334.06 489.251 332.071 489.102 330.778C488.952 329.584 489.052 327.644 489.35 326.55C489.649 325.455 490.395 323.864 491.042 323.018C491.64 322.172 492.834 320.929 493.63 320.282C494.476 319.636 495.919 318.84 496.865 318.492V318.492Z" fill="#9B646A" stroke="#9B646A" stroke-width="1.39596"/>
</svg>
